<?xml version="1.0" encoding="utf-8"?>
<!DOCTYPE svg PUBLIC "-//W3C//DTD SVG 1.1//EN" "http://www.w3.org/Graphics/SVG/1.1/DTD/svg11.dtd" [
	<!ENTITY ns_svg "http://www.w3.org/2000/svg">
	<!ENTITY ns_xlink "http://www.w3.org/1999/xlink">
]>
<svg  version="1.1" id="Layer_1" xmlns="&ns_svg;" xmlns:xlink="&ns_xlink;" width="16" height="12"
	 viewBox="0 0 16.532 12.5" overflow="visible" xml:space="preserve">
<g id="XMLID_5_">
	<g>
		<path fill="#dbdcdc" d="M15.8,10.334c0,0.481,0,0.964,0,1.444c-0.908,0-1.817,0-2.724,0c0.021-0.473-0.043-1.019,0.031-1.444
			C14.005,10.334,14.903,10.334,15.8,10.334z"/>
		<path fill="#dbdcdc" d="M15.8,8.39c0,0.472,0,0.944,0,1.416c-0.908,0-1.817,0-2.724,0c0.021-0.463-0.043-1,0.031-1.416
			C14.005,8.39,14.903,8.39,15.8,8.39z"/>
		<path fill="#dbdcdc" d="M15.8,6.473c0,0.481,0,0.963,0,1.444c-0.908,0-1.817,0-2.724,0c0.021-0.472-0.043-1.018,0.031-1.444
			C14.005,6.473,14.903,6.473,15.8,6.473z"/>
		<path fill="#dbdcdc" d="M12.596,5.223c-0.172-0.279-0.34-0.559-0.579-0.777c0.654-0.629,1.375-1.199,2.021-1.833
			c0.601,0.47,1.199,0.941,1.73,1.472C14.701,4.454,13.666,4.854,12.596,5.223z"/>
		<path fill="#dbdcdc" d="M13.685,2.223c-0.645,0.636-1.362,1.209-2.02,1.833c-0.267-0.186-0.511-0.392-0.802-0.555
			c0.389-0.94,0.815-1.849,1.218-2.779C12.629,1.211,13.137,1.733,13.685,2.223z"/>
		<path fill="#dbdcdc" d="M15.768,4.5C15.843,4.945,15.78,5.51,15.8,6c-0.951,0-1.902,0-2.854,0
			c-0.064-0.092-0.086-0.222-0.129-0.333C13.812,5.288,14.779,4.884,15.768,4.5z"/>
		<path fill="#dbdcdc" d="M10.414,3.278c-0.285-0.112-0.575-0.223-0.897-0.306c0.122-0.737,0.213-1.501,0.321-2.25
			c0.576,0,1.153,0,1.731,0C11.206,1.594,10.792,2.42,10.414,3.278z"/>
		<path fill="#dbdcdc" d="M9.356,0.722C9.214,1.336,9.15,2.193,9.003,2.89C8.567,2.822,8.132,2.843,7.657,2.862
			C7.58,2.106,7.409,1.407,7.336,0.722C8.009,0.722,8.684,0.722,9.356,0.722z"/>
		<path fill="#dbdcdc" d="M7.08,2.973C6.762,3.058,6.43,3.132,6.183,3.278C5.699,2.484,5.363,1.562,4.9,0.75
			c0.556-0.064,1.251-0.009,1.859-0.028C6.856,1.541,7.007,2.163,7.08,2.973z"/>
		<path fill="#dbdcdc" d="M4.868,4.056C4.229,3.442,3.491,2.915,2.879,2.278c0.527-0.433,1.041-0.877,1.54-1.333
			c0.457,0.808,0.82,1.696,1.25,2.528C5.441,3.701,5.14,3.865,4.868,4.056z"/>
		<path fill="#dbdcdc" d="M0.827,4.112c-0.135,0.004,0.001-0.042,0-0.083c0.047-0.016,0.079-0.043,0.097-0.083
			c0.095-0.039,0.13-0.129,0.225-0.167c0.125-0.132,0.264-0.252,0.416-0.361c0.28-0.23,0.548-0.47,0.834-0.694
			C2.41,2.686,2.456,2.679,2.463,2.64c0.711,0.587,1.402,1.192,2.052,1.833C4.27,4.686,4.13,4.991,3.938,5.25
			C2.88,4.889,1.847,4.506,0.827,4.112z"/>
		<path fill="#dbdcdc" d="M0.764,11.779c0.021-0.473-0.043-1.019,0.032-1.444c0.898,0,1.794,0,2.693,0c0,0.481,0,0.964,0,1.444
			C2.581,11.779,1.672,11.779,0.764,11.779z"/>
		<path fill="#dbdcdc" d="M0.764,9.806c0.021-0.463-0.043-1,0.032-1.416c0.898,0,1.794,0,2.693,0c0,0.472,0,0.944,0,1.416
			C2.581,9.806,1.672,9.806,0.764,9.806z"/>
		<path fill="#dbdcdc" d="M0.764,7.917C0.785,7.446,0.721,6.9,0.796,6.473c0.898,0,1.794,0,2.693,0c0,0.481,0,0.963,0,1.444
			C2.581,7.917,1.672,7.917,0.764,7.917z"/>
		<path fill="#dbdcdc" d="M3.713,5.778C3.666,5.82,3.662,5.9,3.65,5.973C2.751,6.037,1.715,5.982,0.764,6c0-0.472,0-0.944,0-1.417
			c0.026-0.005,0.03,0.011,0.032,0.028C1.33,4.769,1.787,4.994,2.303,5.167c0.233,0.103,0.474,0.2,0.737,0.278
			C3.232,5.584,3.581,5.587,3.713,5.778z"/>
	</g>
	<g>
	</g>
</g>
</svg>
